<svg viewBox="0 0 40 40" fill="none" xmlns="http://www.w3.org/2000/svg">
  <defs>
    <linearGradient id="bw-gradient" x1="0" y1="0" x2="40" y2="40" gradientUnits="userSpaceOnUse">
      <stop stopColor="#3B7BFF" />
      <stop offset="1" stopColor="#2563EB" />
    </linearGradient>
  </defs>
  
  <rect x="2" y="2" width="36" height="36" rx="10" fill="url(#bw-gradient)" />
  <rect x="2" y="2" width="36" height="18" rx="10" fill="#ffffff" fillOpacity="0.08" />
  
  <rect x="7.5" y="10" width="1.2" height="13" fill="#ffffff" opacity="0.95" />
  <rect x="31.3" y="10" width="1.2" height="13" fill="#ffffff" opacity="0.95" />
  
  <path d="M 8 22 Q 20 13 32 22" stroke="#ffffff" strokeWidth="2.2" fill="none" strokeLinecap="round" opacity="0.96" />
  
  <line x1="8.1" y1="10.2" x2="18" y2="18.5" stroke="#ffffff" strokeWidth="0.7" opacity="0.65" />
  <line x1="8.1" y1="10.2" x2="16" y2="20" stroke="#ffffff" strokeWidth="0.7" opacity="0.55" />
  <line x1="31.9" y1="10.2" x2="22" y2="18.5" stroke="#ffffff" strokeWidth="0.7" opacity="0.65" />
  <line x1="31.9" y1="10.2" x2="24" y2="20" stroke="#ffffff" strokeWidth="0.7" opacity="0.55" />
  
  <text x="20" y="21" fontSize="7.5" fontWeight="900" fontFamily="system-ui, -apple-system, sans-serif" fill="#2563EB" textAnchor="middle" dominantBaseline="middle" letterSpacing="-0.3">BW</text>
  
  <path d="M 7 26 Q 20 24.5 33 26" stroke="#10b981" strokeWidth="1" opacity="0.85" strokeLinecap="round" />
  <path d="M 10 28.5 Q 20 27.5 30 28.5" stroke="#10b981" strokeWidth="0.6" opacity="0.35" strokeLinecap="round" />
  
  <circle cx="33" cy="8" r="1.8" fill="#10b981" opacity="0.95" />
  <circle cx="33" cy="8" r="1.2" fill="#34d399" opacity="0.4" />
</svg>
